<?xml version="1.0" standalone="no"?>
<!DOCTYPE svg PUBLIC "-//W3C//DTD SVG 20010904//EN"
 "http://www.w3.org/TR/2001/REC-SVG-20010904/DTD/svg10.dtd">
<svg version="1.0" xmlns="http://www.w3.org/2000/svg"
 width="16.000000pt" height="16.000000pt" viewBox="0 0 16.000000 16.000000"
 preserveAspectRatio="xMidYMid meet">
<metadata>
Created by potrace 1.11, written by Peter Selinger 2001-2013
</metadata>
<g transform="translate(0.000000,16.000000) scale(0.002286,-0.002286)"
fill="#000000" stroke="none">
<path d="M2517 5223 c-2 -5 -3 -575 -3 -1268 l1 -1260 214 -3 c124 -1 217 2
220 7 3 5 6 257 5 559 l-1 550 46 47 c111 114 237 169 387 167 203 -3 326
-116 348 -322 2 -25 5 -262 5 -527 l1 -483 231 0 231 0 -5 543 c-5 556 -7 587
-48 715 -76 232 -261 412 -494 480 -218 64 -484 29 -632 -84 -19 -14 -37 -23
-41 -19 -4 4 -8 203 -8 443 -1 241 -2 443 -3 450 -1 9 -53 12 -225 12 -124 0
-227 -3 -229 -7z"/>
<path d="M1067 4484 c-1 -1 -29 -4 -62 -8 -285 -28 -532 -237 -562 -477 -10
-73 6 -188 33 -241 61 -121 181 -213 374 -285 379 -143 415 -165 415 -264 0
-84 -86 -142 -214 -143 -99 0 -153 8 -231 34 -73 25 -177 74 -201 96 -8 8 -20
14 -25 14 -5 0 -35 -28 -66 -62 -110 -122 -120 -133 -150 -164 l-30 -32 74
-45 c300 -188 632 -241 911 -146 98 34 141 56 207 108 73 58 114 110 147 186
30 68 33 84 38 158 8 139 -40 264 -139 362 -77 76 -173 126 -381 199 -88 31
-182 66 -208 78 -134 61 -127 179 12 220 49 14 193 17 250 4 46 -9 128 -45
170 -73 19 -12 36 -21 37 -20 10 10 214 322 214 327 0 3 -33 22 -74 43 -125
63 -272 109 -396 123 -69 7 -139 11 -143 8z"/>
<path d="M4892 4258 c44 -90 151 -307 238 -483 86 -176 222 -450 300 -610 79
-159 143 -294 143 -300 0 -10 -72 -166 -253 -550 -23 -49 -52 -112 -65 -140
-13 -27 -53 -113 -89 -189 -37 -77 -64 -141 -62 -144 4 -3 383 -6 453 -3 24 1
27 6 116 206 25 55 66 144 91 198 25 54 46 99 46 101 0 2 20 46 44 97 24 52
142 308 261 569 119 261 228 500 242 530 14 30 63 136 108 235 45 99 98 214
117 255 45 99 80 175 132 290 l43 95 -235 3 c-130 1 -239 -1 -243 -5 -4 -5
-57 -120 -119 -258 -62 -137 -122 -272 -134 -300 -13 -27 -63 -139 -111 -248
-48 -108 -91 -199 -95 -202 -6 -4 -73 130 -393 788 l-111 227 -252 0 -253 0
81 -162z"/>
</g>
</svg>
