<?xml version="1.0" encoding="utf-8"?>
<!-- Generator: Adobe Illustrator 21.0.2, SVG Export Plug-In . SVG Version: 6.00 Build 0)  -->
<svg version="1.1" xmlns="http://www.w3.org/2000/svg" xmlns:xlink="http://www.w3.org/1999/xlink" x="0px" y="0px"
	 viewBox="0 0 335.4 37.5" style="enable-background:new 0 0 335.4 37.5;" xml:space="preserve">
<style type="text/css">
	.st0{fill:#1A1A1A;}
	.st1{opacity:0.95;fill:#1A1A1A;}
	.st2{fill:#FFFFFF;}
	.st3{opacity:0.99;}
	.st4{fill:none;stroke:#FFFFFF;stroke-width:2;stroke-miterlimit:10;}
	.st5{fill:none;stroke:#FFFFFF;stroke-width:3;stroke-miterlimit:10;}
	.st6{fill:#FFFF00;}
	.st7{fill:#4D4D4D;}
	.st8{fill:#4D4D4D;stroke:#FFFFFF;stroke-miterlimit:10;}
	.st9{fill:#999999;}
	.st10{fill:#29ABE2;}
	.st11{fill:none;stroke:#FFFFFF;stroke-width:5;stroke-miterlimit:10;}
	.st12{fill:none;stroke:#00FFFF;stroke-width:3;stroke-miterlimit:10;}
	.st13{fill:#B3B3B3;}
	.st14{fill:#00FFFF;}
	.st15{fill:none;}
	.st16{opacity:0.7;fill:#000005;}
</style>
<g id="BG">
	<rect x="0" y="-0.5" class="st0" width="336" height="38"/>
	<g>
		<g>
			<path class="st2" d="M106.2,9.8c0.5,0.5,1.4,0.8,2.2,0.8c0.6,0,1-0.3,1-0.7c0-1.2-3.8-0.8-3.8-3.3c0-1.5,1.5-2.5,3-2.5
				c1,0,2.1,0.4,2.7,0.8l-1,1.5c-0.4-0.3-0.9-0.5-1.5-0.5c-0.6,0-1.1,0.2-1.1,0.6c0,1,3.8,0.6,3.8,3.3c0,1.5-1.5,2.4-3.1,2.4
				c-1.1,0-2.2-0.4-3.2-1.1L106.2,9.8z"/>
			<path class="st2" d="M117.1,12.2H115V0.6h2.1v4.2c0.6-0.5,1.3-0.7,2.1-0.7c1.1,0,2.1,0.5,2.7,1.3c0.5,0.6,0.8,1.4,0.8,2.8v4h-2.1
				V8c0-0.8-0.2-1.2-0.5-1.5c-0.3-0.3-0.7-0.4-1.2-0.4c-0.9,0-1.6,0.6-1.9,1V12.2z"/>
			<path class="st2" d="M126.8,16.1l2.2-4.7l-3.5-7.1h2.3l2.3,4.7l2.1-4.7h2.2L129,16.1H126.8z"/>
			<path class="st2" d="M150.3,10.5c-0.9,1.2-2.1,1.8-3.6,1.8c-2.4,0-4.2-1.8-4.2-4.1c0-2.3,1.8-4.1,4.2-4.1c1.4,0,2.6,0.6,3.3,1.6
				L148.6,7c-0.4-0.6-1.1-0.9-1.8-0.9c-1.2,0-2.1,1-2.1,2.2c0,1.2,0.9,2.1,2.2,2.1c0.9,0,1.5-0.5,1.9-1L150.3,10.5z"/>
			<path class="st2" d="M157.1,4.1c2.4,0,4.2,1.8,4.2,4.1s-1.8,4.1-4.2,4.1c-2.4,0-4.2-1.8-4.2-4.1S154.7,4.1,157.1,4.1z
				 M157.1,10.4c1.2,0,2.1-1,2.1-2.1c0-1.2-0.8-2.2-2.1-2.2S155,7,155,8.2C155,9.4,155.9,10.4,157.1,10.4z"/>
			<path class="st2" d="M166.8,12.2h-2.1V0.6h2.1V12.2z"/>
			<path class="st2" d="M173,12.2h-2.1V0.6h2.1V12.2z"/>
			<path class="st2" d="M183.8,10.9c-0.8,0.9-2,1.4-3.2,1.4c-2.4,0-4.1-1.6-4.1-4.1c0-2.2,1.5-4.1,3.8-4.1c2.2,0,3.7,1.8,3.7,4
				c0,0.2,0,0.4,0,0.6h-5.5c0.1,1.1,1,1.9,2.1,1.9c0.9,0,1.6-0.5,2-0.9L183.8,10.9z M181.8,7.2c-0.1-0.7-0.7-1.4-1.6-1.4
				c-0.9,0-1.6,0.7-1.7,1.4H181.8z"/>
			<path class="st2" d="M194.7,10.5c-0.9,1.2-2.1,1.8-3.6,1.8c-2.4,0-4.2-1.8-4.2-4.1c0-2.3,1.8-4.1,4.2-4.1c1.4,0,2.6,0.6,3.3,1.6
				L193,7c-0.4-0.6-1.1-0.9-1.8-0.9c-1.2,0-2.1,1-2.1,2.2c0,1.2,0.9,2.1,2.2,2.1c0.9,0,1.5-0.5,1.9-1L194.7,10.5z"/>
			<path class="st2" d="M203.9,12.2c-0.3,0.1-0.9,0.2-1.3,0.2c-1.3,0-2.2-0.4-2.7-1.1c-0.4-0.5-0.6-1.2-0.6-2.4V6.1h-2.2V4.3h2.2
				V2.1h2.1v2.2h2.6v1.8h-2.6v3c0,0.5,0.1,0.8,0.3,1c0.2,0.2,0.6,0.4,1.1,0.4c0.3,0,0.7,0,0.9-0.1L203.9,12.2z"/>
			<path class="st2" d="M208.7,0.1c0.8,0,1.4,0.6,1.4,1.3s-0.6,1.3-1.4,1.3c-0.8,0-1.4-0.6-1.4-1.3S207.9,0.1,208.7,0.1z
				 M209.7,12.2h-2.1V4.3h2.1V12.2z"/>
			<path class="st2" d="M217.1,9.1l2.2-4.8h2.2l-3.6,7.9h-1.5l-3.6-7.9h2.2L217.1,9.1z"/>
			<path class="st2" d="M231,10.9c-0.8,0.9-2,1.4-3.2,1.4c-2.4,0-4.1-1.6-4.1-4.1c0-2.2,1.5-4.1,3.8-4.1c2.2,0,3.7,1.8,3.7,4
				c0,0.2,0,0.4,0,0.6h-5.5c0.1,1.1,1,1.9,2.1,1.9c0.9,0,1.6-0.5,2-0.9L231,10.9z M229,7.2c-0.1-0.7-0.7-1.4-1.6-1.4
				c-0.9,0-1.6,0.7-1.7,1.4H229z"/>
		</g>
		<g>
			<path class="st2" d="M10.7,25.1c1.8,0,3,0.4,3.9,1.1c1.4,1,2.3,2.7,2.3,4.6c0,1.9-0.9,3.6-2.3,4.6c-0.9,0.7-2.1,1.1-3.9,1.1H7.1
				V25.1H10.7z M13.9,28.3c-0.6-0.8-1.6-1.3-2.9-1.3H9.3v7.5H11c1.3,0,2.3-0.5,2.9-1.3c0.5-0.7,0.8-1.5,0.8-2.5
				C14.7,29.9,14.4,29,13.9,28.3z"/>
			<path class="st2" d="M21.9,25.1h2.2v11.4h-2.2V25.1z"/>
			<path class="st2" d="M32.2,27.1v2.4h3.5v2h-3.5v3.2H37v2h-7V25.1h6.8v2H32.2z"/>
			<path class="st2" d="M53.7,25.1c1.3,0,2,0.3,2.6,0.8c0.6,0.6,1.1,1.4,1.1,2.3c0,0.7-0.4,1.5-0.7,1.9c1,0.5,1.7,1.6,1.7,2.9
				c0,1-0.4,1.8-1,2.5c-0.6,0.6-1.5,1-3,1h-4.4V25.1H53.7z M52,29.5h1.5c0.7,0,1-0.2,1.2-0.4c0.2-0.2,0.3-0.5,0.3-0.8
				c0-0.3-0.1-0.6-0.3-0.8c-0.2-0.2-0.5-0.4-1.2-0.4H52V29.5z M54.2,34.5c0.8,0,1.2-0.2,1.5-0.5c0.3-0.3,0.4-0.6,0.4-1
				c0-0.4-0.1-0.8-0.4-1c-0.3-0.3-0.7-0.5-1.5-0.5H52v3.1H54.2z"/>
			<path class="st2" d="M65.4,27.1v2.4h3.5v2h-3.5v3.2h4.8v2h-7V25.1h6.8v2H65.4z"/>
			<path class="st2" d="M74.5,25.1h2.2l2.4,7.1l2.5-7.1h1.5l2.5,7.1l2.4-7.1h2.2l-3.8,11.4h-1.5l-2.5-7.2l-2.5,7.2h-1.5L74.5,25.1z"
				/>
			<path class="st2" d="M97.1,27.1v2.4h3.5v2h-3.5v3.2h4.8v2h-7V25.1h6.8v2H97.1z"/>
			<path class="st2" d="M108.2,30.8c0,2.2,1.7,3.9,3.9,3.9c1,0,1.9-0.4,2.5-0.9v-2.5h-2.9v-2h5.1v5.1c-1,1.3-2.7,2.2-4.8,2.2
				c-3.5,0-6-2.6-6-5.9c0-3.3,2.5-5.9,6-5.9c1.7,0,3.1,0.6,4.2,1.6l-1.4,1.5c-0.7-0.7-1.6-1.2-2.8-1.2
				C109.8,26.9,108.2,28.6,108.2,30.8z"/>
			<path class="st2" d="M129.5,25.1v2h-3v9.4h-2.2v-9.4h-3v-2H129.5z"/>
			<path class="st2" d="M138.3,25.1c1.3,0,2,0.3,2.6,0.8c0.6,0.6,1.1,1.4,1.1,2.3c0,0.7-0.4,1.5-0.7,1.9c1,0.5,1.7,1.6,1.7,2.9
				c0,1-0.4,1.8-1,2.5c-0.6,0.6-1.5,1-3,1h-4.4V25.1H138.3z M136.7,29.5h1.5c0.7,0,1-0.2,1.2-0.4c0.2-0.2,0.3-0.5,0.3-0.8
				c0-0.3-0.1-0.6-0.3-0.8c-0.2-0.2-0.5-0.4-1.2-0.4h-1.5V29.5z M138.9,34.5c0.8,0,1.2-0.2,1.5-0.5c0.3-0.3,0.4-0.6,0.4-1
				c0-0.4-0.1-0.8-0.4-1c-0.3-0.3-0.7-0.5-1.5-0.5h-2.2v3.1H138.9z"/>
			<path class="st2" d="M147.9,25.1h2.2v11.4h-2.2V25.1z"/>
			<path class="st2" d="M155.9,25.1h2.2v9.4h4.8v2h-7V25.1z"/>
			<path class="st2" d="M171.5,25.1c1.8,0,3,0.4,3.9,1.1c1.4,1,2.3,2.7,2.3,4.6c0,1.9-0.9,3.6-2.3,4.6c-0.9,0.7-2.1,1.1-3.9,1.1
				h-3.6V25.1H171.5z M174.6,28.3c-0.6-0.8-1.6-1.3-2.9-1.3h-1.6v7.5h1.6c1.3,0,2.3-0.5,2.9-1.3c0.5-0.7,0.8-1.5,0.8-2.5
				C175.4,29.9,175.1,29,174.6,28.3z"/>
			<path class="st2" d="M196,31.9l4.1-6.8h1.5v11.4h-2.2v-6.3l-2.7,4.5h-1.5l-2.7-4.5v6.3h-2.2V25.1h1.5L196,31.9z"/>
			<path class="st2" d="M206.3,36.5l4.9-11.4h1.5l4.9,11.4h-2.3l-1.1-2.5h-4.6l-1.1,2.5H206.3z M210.5,32h2.9l-1.4-3.4L210.5,32z"/>
			<path class="st2" d="M222.1,25.1h1.5l6.3,7.4v-7.4h2.2v11.4h-1.5l-6.3-7.4v7.4h-2.2V25.1z"/>
			<path class="st2" d="M239.4,35.5c-0.9-0.8-1.5-2-1.5-3.8v-6.6h2.2v6.7c0,1,0.3,1.7,0.7,2.1c0.5,0.5,1.2,0.7,1.9,0.7
				c0.8,0,1.4-0.3,1.9-0.7c0.5-0.4,0.7-1.1,0.7-2.1v-6.7h2.2v6.6c0,1.7-0.5,2.9-1.5,3.8c-0.9,0.8-2.1,1.2-3.4,1.2
				C241.6,36.7,240.3,36.3,239.4,35.5z"/>
			<path class="st2" d="M255.7,27.1v2.4h3.5v2h-3.5v5.1h-2.2V25.1h6.8v2H255.7z"/>
			<path class="st2" d="M262.8,36.5l4.9-11.4h1.5l4.9,11.4h-2.3l-1.1-2.5h-4.6l-1.1,2.5H262.8z M267,32h2.9l-1.4-3.4L267,32z"/>
			<path class="st2" d="M280.8,30.9v5.6h-2.2V25.1h2.2v4.6l4.3-4.6h2.9l-5,5.2l5.6,6.2h-2.8L280.8,30.9z"/>
			<path class="st2" d="M300.6,25.1v2h-3v9.4h-2.2v-9.4h-3v-2H300.6z"/>
			<path class="st2" d="M306.9,35.5c-0.9-0.8-1.5-2-1.5-3.8v-6.6h2.2v6.7c0,1,0.3,1.7,0.7,2.1c0.5,0.5,1.2,0.7,1.9,0.7
				c0.8,0,1.4-0.3,1.9-0.7c0.5-0.4,0.7-1.1,0.7-2.1v-6.7h2.2v6.6c0,1.7-0.5,2.9-1.5,3.8c-0.9,0.8-2.1,1.2-3.4,1.2
				S307.8,36.3,306.9,35.5z"/>
			<path class="st2" d="M323.2,31.5v5H321V25.1h4.1c1.2,0,1.9,0.3,2.5,0.8c0.6,0.6,1,1.4,1,2.3c0,0.9-0.4,1.7-1,2.3
				c-0.3,0.3-0.7,0.5-1.1,0.7l4.3,5.2H328l-4-5H323.2z M325,29.5c0.6,0,0.9-0.1,1.1-0.3c0.2-0.2,0.3-0.5,0.3-0.9
				c0-0.3-0.1-0.7-0.3-0.9c-0.2-0.2-0.5-0.4-1.1-0.4h-1.8v2.4H325z"/>
		</g>
	</g>
</g>
<g id="Entwurf">
</g>
</svg>
