<svg xmlns="http://www.w3.org/2000/svg" width="127" height="17" viewBox="0 0 127 17">
  <g id="Page-1" fill="none" fill-rule="evenodd">
    <g id="shy-logo" fill="#FFF" fill-rule="nonzero">
      <g id="Group">
        <path id="Shape" d="M1.2,9.8 C1.7,10.3 2.6,10.6 3.4,10.6 C4,10.6 4.4,10.3 4.4,9.9 C4.4,8.7 0.6,9.1 0.6,6.6 C0.6,5.1 2.1,4.1 3.6,4.1 C4.6,4.1 5.7,4.5 6.3,4.9 L5.3,6.4 C4.9,6.1 4.4,5.9 3.8,5.9 C3.2,5.9 2.7,6.1 2.7,6.5 C2.7,7.5 6.5,7.1 6.5,9.8 C6.5,11.3 5,12.2 3.4,12.2 C2.3,12.2 1.2,11.8 0.2,11.1 L1.2,9.8 Z"/>
        <path d="M12.1,12.2 L10,12.2 L10,0.6 L12.1,0.6 L12.1,4.8 C12.7,4.3 13.4,4.1 14.2,4.1 C15.3,4.1 16.3,4.6 16.9,5.4 C17.4,6 17.7,6.8 17.7,8.2 L17.7,12.2 L15.6,12.2 L15.6,8 C15.6,7.2 15.4,6.8 15.1,6.5 C14.8,6.2 14.4,6.1 13.9,6.1 C13,6.1 12.3,6.7 12,7.1 L12,12.2 L12.1,12.2 Z"/>
        <polygon points="21.8 16.1 24 11.4 20.5 4.3 22.8 4.3 25.1 9 27.2 4.3 29.4 4.3 24 16.1"/>
        <path d="M45.3 10.5C44.4 11.7 43.2 12.3 41.7 12.3 39.3 12.3 37.5 10.5 37.5 8.2 37.5 5.9 39.3 4.1 41.7 4.1 43.1 4.1 44.3 4.7 45 5.7L43.6 7C43.2 6.4 42.5 6.1 41.8 6.1 40.6 6.1 39.7 7.1 39.7 8.3 39.7 9.5 40.6 10.4 41.9 10.4 42.8 10.4 43.4 9.9 43.8 9.4L45.3 10.5zM52.1 4.1C54.5 4.1 56.3 5.9 56.3 8.2 56.3 10.5 54.5 12.3 52.1 12.3 49.7 12.3 47.9 10.5 47.9 8.2 47.9 5.9 49.7 4.1 52.1 4.1zM52.1 10.4C53.3 10.4 54.2 9.4 54.2 8.3 54.2 7.1 53.4 6.1 52.1 6.1 50.8 6.1 50 7 50 8.2 50 9.4 50.9 10.4 52.1 10.4z"/>
        <polygon points="61.8 12.2 59.7 12.2 59.7 .6 61.8 .6"/>
        <polygon points="68 12.2 65.9 12.2 65.9 .6 68 .6"/>
        <path d="M78.8 10.9C78 11.8 76.8 12.3 75.6 12.3 73.2 12.3 71.5 10.7 71.5 8.2 71.5 6 73 4.1 75.3 4.1 77.5 4.1 79 5.9 79 8.1L79 8.7 73.5 8.7C73.6 9.8 74.5 10.6 75.6 10.6 76.5 10.6 77.2 10.1 77.6 9.7L78.8 10.9zM76.8 7.2C76.7 6.5 76.1 5.8 75.2 5.8 74.3 5.8 73.6 6.5 73.5 7.2L76.8 7.2 76.8 7.2zM89.7 10.5C88.8 11.7 87.6 12.3 86.1 12.3 83.7 12.3 81.9 10.5 81.9 8.2 81.9 5.9 83.7 4.1 86.1 4.1 87.5 4.1 88.7 4.7 89.4 5.7L88 7C87.6 6.4 86.9 6.1 86.2 6.1 85 6.1 84.1 7.1 84.1 8.3 84.1 9.5 85 10.4 86.3 10.4 87.2 10.4 87.8 9.9 88.2 9.4L89.7 10.5zM98.9 12.2C98.6 12.3 98 12.4 97.6 12.4 96.3 12.4 95.4 12 94.9 11.3 94.5 10.8 94.3 10.1 94.3 8.9L94.3 6.1 92.1 6.1 92.1 4.3 94.3 4.3 94.3 2.1 96.4 2.1 96.4 4.3 99 4.3 99 6.1 96.4 6.1 96.4 9.1C96.4 9.6 96.5 9.9 96.7 10.1 96.9 10.3 97.3 10.5 97.8 10.5 98.1 10.5 98.5 10.5 98.7 10.4L98.9 12.2zM103.7.1C104.5.1 105.1.7 105.1 1.4 105.1 2.1 104.5 2.7 103.7 2.7 102.9 2.7 102.3 2.1 102.3 1.4 102.3.7 102.9.1 103.7.1zM104.7 12.2L102.6 12.2 102.6 4.3 104.7 4.3 104.7 12.2z"/>
        <polygon points="112.1 9.1 114.3 4.3 116.5 4.3 112.9 12.2 111.4 12.2 107.8 4.3 110 4.3"/>
        <path d="M126,10.9 C125.2,11.8 124,12.3 122.8,12.3 C120.4,12.3 118.7,10.7 118.7,8.2 C118.7,6 120.2,4.1 122.5,4.1 C124.7,4.1 126.2,5.9 126.2,8.1 L126.2,8.7 L120.7,8.7 C120.8,9.8 121.7,10.6 122.8,10.6 C123.7,10.6 124.4,10.1 124.8,9.7 L126,10.9 Z M124,7.2 C123.9,6.5 123.3,5.8 122.4,5.8 C121.5,5.8 120.8,6.5 120.7,7.2 L124,7.2 L124,7.2 Z"/>
      </g>
    </g>
  </g>
</svg>
